HIERARCHY
ROOT joint_Root
{
	OFFSET 0.0 0.0 0.0
	CHANNELS 6 Xposition Yposition Zposition Zrotation Xrotation Yrotation 
	JOINT Hips
	{
		OFFSET -17.1583 93.1646 452.98
		CHANNELS 6 Xposition Yposition Zposition Zrotation Xrotation Yrotation 
		JOINT Spine
		{
			OFFSET 15.7357 0.0 0.0
			CHANNELS 6 Xposition Yposition Zposition Zrotation Xrotation Yrotation 
			JOINT Chest
			{
				OFFSET 8.98455 -0.406207 0.0
				CHANNELS 6 Xposition Yposition Zposition Zrotation Xrotation Yrotation 
				JOINT Neck
				{
					OFFSET 16.3773 0.0 0.0
					CHANNELS 6 Xposition Yposition Zposition Zrotation Xrotation Yrotation 
					JOINT Head
					{
						OFFSET 6.45672 0.0 0.0
						CHANNELS 6 Xposition Yposition Zposition Zrotation Xrotation Yrotation 
						End Site
						{
							OFFSET 0.0 0.0 0.0
						}
					}
				}
				JOINT Shoulder_L
				{
					OFFSET 12.9942 -0.242716 4.98039
					CHANNELS 6 Xposition Yposition Zposition Zrotation Xrotation Yrotation 
					JOINT UpperArm_L
					{
						OFFSET 5.34809 0.0 0.0
						CHANNELS 6 Xposition Yposition Zposition Zrotation Xrotation Yrotation 
						JOINT LowerArm_L
						{
							OFFSET 24.3286 1.87007e-05 0.0
							CHANNELS 6 Xposition Yposition Zposition Zrotation Xrotation Yrotation 
							JOINT Hand_L
							{
								OFFSET 22.2916 0.0 0.0
								CHANNELS 6 Xposition Yposition Zposition Zrotation Xrotation Yrotation 
								End Site
								{
									OFFSET 0.0 0.0 0.0
								}
							}
						}
					}
				}
				JOINT Shoulder_R
				{
					OFFSET 12.9945 -0.242716 -4.98039
					CHANNELS 6 Xposition Yposition Zposition Zrotation Xrotation Yrotation 
					JOINT UpperArm_R
					{
						OFFSET -5.34813 0.0 0.0
						CHANNELS 6 Xposition Yposition Zposition Zrotation Xrotation Yrotation 
						JOINT LowerArm_R
						{
							OFFSET -24.3289 0.000322201 0.0
							CHANNELS 6 Xposition Yposition Zposition Zrotation Xrotation Yrotation 
							JOINT Hand_R
							{
								OFFSET -22.2915 -0.000108084 0.0
								CHANNELS 6 Xposition Yposition Zposition Zrotation Xrotation Yrotation 
								End Site
								{
									OFFSET 0.0 0.0 0.0
								}
							}
						}
					}
				}
			}
		}
		JOINT UpperLeg_L
		{
			OFFSET -2.19248 -6.46944 0.0
			CHANNELS 6 Xposition Yposition Zposition Zrotation Xrotation Yrotation 
			JOINT LowerLeg_L
			{
				OFFSET 39.0811 0.0 -1.23785e-05
				CHANNELS 6 Xposition Yposition Zposition Zrotation Xrotation Yrotation 
				JOINT Foot_L
				{
					OFFSET 40.9854 0.0 -1.26872e-05
					CHANNELS 6 Xposition Yposition Zposition Zrotation Xrotation Yrotation 
					JOINT Toes_L
					{
						OFFSET 11.7543 0.0 0.0
						CHANNELS 6 Xposition Yposition Zposition Zrotation Xrotation Yrotation 
						End Site
						{
							OFFSET 0.0 0.0 0.0
						}
					}
				}
			}
		}
		JOINT UpperLeg_R
		{
			OFFSET -2.19251 6.46944 0.0
			CHANNELS 6 Xposition Yposition Zposition Zrotation Xrotation Yrotation 
			JOINT LowerLeg_R
			{
				OFFSET -39.0811 -0.00228153 -0.0401928
				CHANNELS 6 Xposition Yposition Zposition Zrotation Xrotation Yrotation 
				JOINT Foot_R
				{
					OFFSET -40.9854 0.0 0.0
					CHANNELS 6 Xposition Yposition Zposition Zrotation Xrotation Yrotation 
					JOINT Toes_R
					{
						OFFSET -11.7543 0.0 0.0
						CHANNELS 6 Xposition Yposition Zposition Zrotation Xrotation Yrotation 
						End Site
						{
							OFFSET 0.0 0.0 0.0
						}
					}
				}
			}
		}
	}
}
MOTION
Frames:	9
Frame Time:	0.0333333
0.000000 0.000000 0.000000 0.000000 0.000000 -0.000000 192.225000 93.697700 -91.067900 89.750900 -2.600870 -2.703240 15.735700 0.000005 -0.000001 63.584200 87.512900 -62.506900 8.984550 -0.406207 -0.000000 -3.289800 -2.315750 2.088800 16.377300 -0.000001 -0.000001 7.151380 4.306060 -5.060190 6.456720 -0.000001 -0.000000 10.469200 5.193410 -2.563020 12.994200 -0.242716 4.980390 -92.469000 6.753530 -69.864000 5.348090 -0.000007 -0.000001 -71.094700 -6.035790 -0.304333 24.328600 0.000019 0.000005 38.286600 23.831700 -62.892300 22.291600 -0.000001 0.000005 53.694800 4.543630 15.872500 12.994500 -0.242716 -4.980390 89.346100 1.918450 -71.174600 -5.348130 -0.000001 -0.000004 -69.420300 0.957046 8.976840 -24.328900 0.000322 -0.000009 0.154034 1.386700 -6.381200 -22.291500 -0.000108 -0.000004 41.663400 5.399440 -2.919040 -2.192480 -6.469440 -0.000000 178.895000 -5.167710 0.017336 39.081100 -0.000007 -0.000012 -0.006853 0.025833 14.856700 40.985400 -0.000006 -0.000013 -3.002370 13.636200 -65.619600 11.754300 -0.000000 0.000003 0.001790 0.128215 -11.377400 -2.192510 6.469440 -0.000001 -178.405000 -6.302540 152.695000 -39.081100 -0.002282 -0.040193 -0.019760 0.014148 58.369700 -40.985400 0.000008 0.000006 -5.259840 -15.107900 -64.549600 -11.754300 -0.000006 -0.000006 -0.001888 0.194978 -8.663010
0.000000 0.000000 0.000000 0.000000 0.000000 -0.000000 192.041000 93.926600 -88.801700 89.162500 -2.488170 -3.304010 15.735700 0.000005 -0.000001 57.803500 87.457800 -56.604300 8.984550 -0.406207 -0.000000 -3.434770 -2.824860 2.314880 16.377300 -0.000001 -0.000001 7.337750 4.422280 -4.997930 6.456720 -0.000001 -0.000000 10.665200 5.695550 -2.576300 12.994200 -0.242716 4.980390 -92.280900 6.341500 -70.171000 5.348090 -0.000007 -0.000001 -71.127000 -7.781540 -1.682570 24.328600 0.000019 0.000005 41.164300 21.430200 -67.320500 22.291600 -0.000001 0.000005 53.848300 4.495970 16.666200 12.994500 -0.242716 -4.980390 89.480500 1.505500 -70.960900 -5.348130 -0.000001 -0.000004 -68.107300 -1.047940 10.933500 -24.328900 0.000322 -0.000009 0.129212 1.225420 -6.068050 -22.291500 -0.000108 -0.000004 41.710000 5.397740 -2.865230 -2.192480 -6.469440 -0.000000 -179.894000 -8.338020 2.443450 39.081100 -0.000007 -0.000012 -0.002828 0.013478 11.845600 40.985400 -0.000006 -0.000013 -3.173940 16.718400 -63.784000 11.754300 -0.000000 0.000003 0.002308 0.106351 -12.264000 -2.192510 6.469440 -0.000001 -177.987000 -8.160650 150.802000 -39.081100 -0.002282 -0.040193 -0.020809 0.020981 48.911300 -40.985400 0.000008 0.000006 -5.618920 -17.860000 -65.460500 -11.754300 -0.000006 -0.000006 -0.001926 0.195459 -8.643470
0.000000 0.000000 0.000000 0.000000 0.000000 -0.000000 191.982000 93.813000 -86.475700 89.076100 -2.558100 -3.651950 15.735700 0.000005 -0.000001 54.754200 87.306400 -53.601700 8.984550 -0.406207 -0.000000 -3.335440 -3.218950 2.212370 16.377300 -0.000001 -0.000001 7.050900 4.590880 -4.823300 6.456720 -0.000001 -0.000000 10.492400 6.224950 -2.578040 12.994200 -0.242716 4.980390 -92.126500 6.041710 -70.568200 5.348090 -0.000007 -0.000001 -71.095500 -9.458670 -3.024430 24.328600 0.000019 0.000005 43.110000 19.423200 -70.442600 22.291600 -0.000001 0.000005 54.638700 4.460690 17.243900 12.994500 -0.242716 -4.980390 89.616700 1.110070 -70.950500 -5.348130 -0.000001 -0.000004 -66.818600 -2.935290 12.457300 -24.328900 0.000322 -0.000009 0.121022 1.173350 -5.939500 -22.291500 -0.000108 -0.000004 41.670800 5.394890 -2.772210 -2.192480 -6.469440 -0.000000 -179.494000 -9.776750 4.606310 39.081100 -0.000007 -0.000012 -0.001134 0.006425 10.007000 40.985400 -0.000006 -0.000013 -3.024570 17.865000 -63.042900 11.754300 -0.000000 0.000003 0.002485 0.081221 -13.282800 -2.192510 6.469440 -0.000001 -178.253000 -9.117210 150.558000 -39.081100 -0.002282 -0.040193 -0.003176 0.008596 36.933000 -40.985400 0.000008 0.000006 -6.022740 -18.106100 -64.531800 -11.754300 -0.000006 -0.000006 -0.002151 0.198265 -8.529360
0.000000 0.000000 0.000000 0.000000 0.000000 -0.000000 191.993000 93.364500 -83.960700 89.201000 -2.661420 -3.828160 15.735700 0.000005 -0.000001 52.734800 87.118200 -51.667000 8.984550 -0.406207 -0.000000 -3.147670 -3.589930 2.037930 16.377300 -0.000001 -0.000001 6.453630 4.789940 -4.620470 6.456720 -0.000001 -0.000000 10.149900 6.719730 -2.612580 12.994200 -0.242716 4.980390 -92.043400 5.932320 -70.954500 5.348090 -0.000007 -0.000001 -71.046300 -10.916600 -4.109000 24.328600 0.000019 0.000005 44.623900 18.079900 -72.544500 22.291600 -0.000001 0.000005 55.452800 4.408180 18.092100 12.994500 -0.242716 -4.980390 89.700600 0.872141 -71.054400 -5.348130 -0.000001 -0.000004 -65.417100 -4.277830 13.573900 -24.328900 0.000322 -0.000009 0.127335 1.247670 -5.875390 -22.291500 -0.000108 -0.000004 41.706100 5.377300 -2.213840 -2.192480 -6.469440 -0.000000 -179.433000 -10.033500 6.289960 39.081100 -0.000007 -0.000012 -0.000584 0.003376 9.796240 40.985400 -0.000006 -0.000013 -2.789340 18.048600 -63.692600 11.754300 -0.000000 0.000003 0.002276 0.059390 -14.167900 -2.192510 6.469440 -0.000001 -178.503000 -8.923390 151.684000 -39.081100 -0.002282 -0.040193 0.013617 -0.023156 23.986800 -40.985400 0.000008 0.000006 -6.465580 -14.391600 -63.596600 -11.754300 -0.000006 -0.000006 -0.002661 0.204371 -8.280950
0.000000 0.000000 0.000000 0.000000 0.000000 -0.000000 191.935000 92.692300 -81.190000 89.338500 -2.622460 -4.052630 15.735700 0.000005 -0.000001 50.295900 86.995300 -49.291100 8.984550 -0.406207 -0.000000 -3.110760 -3.932580 1.903840 16.377300 -0.000001 -0.000001 5.771080 4.968550 -4.400490 6.456720 -0.000001 -0.000000 9.701420 7.147380 -2.610410 12.994200 -0.242716 4.980390 -92.047400 6.068350 -71.316100 5.348090 -0.000007 -0.000001 -70.945900 -11.742700 -4.896180 24.328600 0.000019 0.000005 44.755400 17.216100 -73.378900 22.291600 -0.000001 0.000005 55.830200 4.382710 18.498000 12.994500 -0.242716 -4.980390 89.646500 1.030110 -71.058200 -5.348130 -0.000001 -0.000004 -63.756400 -5.378000 14.388500 -24.328900 0.000322 -0.000009 0.192001 1.875330 -5.877820 -22.291500 -0.000108 -0.000004 41.783800 5.381700 -2.351740 -2.192480 -6.469440 -0.000000 -179.250000 -10.021100 7.524080 39.081100 -0.000007 -0.000012 -0.000403 0.002119 10.746200 40.985400 -0.000006 -0.000013 -2.762880 18.510600 -64.988700 11.754300 -0.000000 0.000003 0.001666 0.035625 -15.131600 -2.192510 6.469440 -0.000001 -178.499000 -8.583650 153.502000 -39.081100 -0.002282 -0.040193 0.017072 -0.068071 11.408200 -40.985400 0.000008 0.000006 -6.757810 -10.866000 -62.104900 -11.754300 -0.000006 -0.000006 -0.002900 0.207131 -8.168660
0.000000 0.000000 0.000000 0.000000 0.000000 -0.000000 191.811000 91.889400 -78.057700 89.335700 -2.343280 -4.310010 15.735700 0.000005 -0.000001 47.171600 86.915900 -46.144500 8.984550 -0.406207 -0.000000 -3.207220 -4.289530 1.935300 16.377300 -0.000001 -0.000001 5.030240 5.069380 -4.220770 6.456720 -0.000001 -0.000000 9.344230 7.402110 -2.563990 12.994200 -0.242716 4.980390 -92.123800 6.399640 -71.597100 5.348090 -0.000007 -0.000001 -71.020300 -11.708600 -5.346890 24.328600 0.000019 0.000005 44.146100 17.165700 -73.087000 22.291600 -0.000001 0.000005 55.815500 4.355320 18.930400 12.994500 -0.242716 -4.980390 89.482900 1.504970 -71.036800 -5.348130 -0.000001 -0.000004 -62.122100 -6.336500 14.901200 -24.328900 0.000322 -0.000009 0.262387 2.439760 -6.163720 -22.291500 -0.000108 -0.000004 42.073600 5.379000 -2.267170 -2.192480 -6.469440 -0.000000 -178.784000 -9.829330 8.452700 39.081100 -0.000007 -0.000012 -0.002563 0.011435 12.631100 40.985400 -0.000006 -0.000013 -2.584080 19.137400 -66.419400 11.754300 -0.000000 0.000003 0.000311 0.005405 -16.358000 -2.192510 6.469440 -0.000001 -178.628000 -9.149630 152.369000 -39.081100 -0.002282 -0.040193 0.008786 -0.042759 7.253850 -40.985400 0.000008 0.000006 -6.779670 -9.062660 -62.907800 -11.754300 -0.000006 -0.000006 -0.003055 0.208887 -8.097180
0.000000 0.000000 0.000000 0.000000 0.000000 -0.000000 191.630000 91.067500 -74.441600 89.135100 -1.542640 -4.590870 15.735700 0.000005 -0.000001 42.295400 86.881400 -41.140100 8.984550 -0.406207 -0.000000 -3.525700 -4.724910 2.166780 16.377300 -0.000001 -0.000001 4.524660 5.005800 -4.171010 6.456720 -0.000001 -0.000000 8.993350 7.403480 -2.395860 12.994200 -0.242716 4.980390 -92.160000 6.600370 -71.833700 5.348090 -0.000007 -0.000001 -71.378000 -10.006600 -5.159070 24.328600 0.000019 0.000005 42.210800 17.721700 -71.449200 22.291600 -0.000001 0.000005 55.544800 4.363600 18.800200 12.994500 -0.242716 -4.980390 89.359200 1.854250 -70.931500 -5.348130 -0.000001 -0.000004 -61.055000 -7.572720 15.166600 -24.328900 0.000322 -0.000009 0.295460 2.590380 -6.532550 -22.291500 -0.000108 -0.000004 42.233400 5.372890 -2.076210 -2.192480 -6.469440 -0.000000 -178.034000 -9.271670 9.103360 39.081100 -0.000007 -0.000012 -0.006610 0.024081 15.348100 40.985400 -0.000006 -0.000013 -2.190850 19.705000 -67.287200 11.754300 -0.000000 0.000003 -0.004937 -0.060864 -19.053200 -2.192510 6.469440 -0.000001 -178.490000 -9.072990 151.232000 -39.081100 -0.002282 -0.040193 0.007082 -0.030517 6.983200 -40.985400 0.000008 0.000006 -7.305440 -7.632790 -63.270700 -11.754300 -0.000006 -0.000006 -0.002853 0.206592 -8.190570
0.000000 0.000000 0.000000 0.000000 0.000000 -0.000000 191.408000 90.421500 -70.281800 88.518000 -0.394248 -5.385440 15.735700 0.000005 -0.000001 33.919100 87.047100 -32.418700 8.984550 -0.406207 -0.000000 -4.411330 -5.056130 2.809310 16.377300 -0.000001 -0.000001 4.135390 4.731790 -4.221500 6.456720 -0.000001 -0.000000 9.001980 7.169110 -2.408190 12.994200 -0.242716 4.980390 -92.209800 6.837980 -72.042400 5.348090 -0.000007 -0.000001 -71.980400 -6.740550 -4.313500 24.328600 0.000019 0.000005 40.692600 19.466000 -68.816900 22.291600 -0.000001 0.000005 54.920900 4.399740 18.226300 12.994500 -0.242716 -4.980390 89.284100 2.056770 -70.803900 -5.348130 -0.000001 -0.000004 -60.720500 -8.373050 15.226900 -24.328900 0.000322 -0.000009 0.278114 2.331120 -6.830460 -22.291500 -0.000108 -0.000004 42.319100 5.373980 -2.110140 -2.192480 -6.469440 -0.000000 -176.999000 -8.254950 9.309390 39.081100 -0.000007 -0.000012 -0.005604 0.017351 17.897600 40.985400 -0.000006 -0.000013 -1.640080 19.510000 -66.460000 11.754300 -0.000000 0.000003 -0.022188 -0.179133 -23.900000 -2.192510 6.469440 -0.000001 -177.963000 -9.078820 150.934000 -39.081100 -0.002282 -0.040193 0.010584 -0.053025 7.776240 -40.985400 0.000008 0.000006 -6.255520 -9.204000 -61.309200 -11.754300 -0.000006 -0.000006 -0.002262 0.199616 -8.474410
0.000000 0.000000 0.000000 0.000000 0.000000 -0.000000 191.059000 90.095700 -65.807700 87.147700 0.717539 -7.061660 15.735700 0.000005 -0.000001 17.202000 87.538900 -15.010900 8.984550 -0.406207 -0.000000 -6.224490 -4.961620 4.120290 16.377300 -0.000001 -0.000001 3.918990 4.350870 -4.555680 6.456720 -0.000001 -0.000000 9.496000 6.504310 -2.451740 12.994200 -0.242716 4.980390 -92.404200 7.486340 -72.138700 5.348090 -0.000007 -0.000001 -72.535400 -2.065990 -2.864500 24.328600 0.000019 0.000005 39.505400 22.667500 -64.948200 22.291600 -0.000001 0.000005 54.380900 4.450970 17.401600 12.994500 -0.242716 -4.980390 89.164400 2.397670 -70.781000 -5.348130 -0.000001 -0.000004 -60.606000 -8.635040 15.379400 -24.328900 0.000322 -0.000009 0.280387 2.271300 -7.065200 -22.291500 -0.000108 -0.000004 42.152000 5.375930 -2.170840 -2.192480 -6.469440 -0.000000 -175.245000 -7.687480 8.126840 39.081100 -0.000007 -0.000012 0.004252 -0.011133 20.905000 40.985400 -0.000006 -0.000013 -1.105500 19.186400 -63.282200 11.754300 -0.000000 0.000003 -0.067142 -0.354328 -31.237600 -2.192510 6.469440 -0.000001 -176.018000 -8.495650 147.694000 -39.081100 -0.002282 -0.040193 0.009979 -0.026944 13.857300 -40.985400 0.000008 0.000006 -4.806280 -11.769500 -56.814000 -11.754300 -0.000006 -0.000006 -0.002326 0.200390 -8.442910
